<svg width="70" height="70" viewBox="0 0 70 70" fill="none" xmlns="http://www.w3.org/2000/svg">
<g clip-path="url(#clip0_631_192)">
<path opacity="0.18" d="M15.8161 15.1138C11.7363 17.7879 7.53272 20.5883 4.68906 25.0667C2.98135 27.7593 1.84351 30.9644 1.24435 34.2995C0.218019 39.9919 0.977841 46.5913 4.50855 50.5061C5.73712 51.8744 7.23975 52.8404 8.78964 53.5825C12.0023 55.118 15.4556 55.7462 18.8932 55.4205C21.7161 55.1503 24.5342 54.2377 27.3429 54.6725C30.7687 55.2013 33.7598 57.6597 36.9512 59.2785C40.9169 61.282 45.2349 62.0047 49.493 61.3774C50.5666 61.2173 51.6534 60.9611 52.5975 60.314C53.7183 59.5452 54.549 58.2893 55.4327 57.1413C57.4251 54.5432 59.7751 52.3964 62.375 50.7995C63.7387 49.9622 65.1837 49.2676 66.3679 48.0895C69.4865 44.9933 70.0205 39.4527 69.839 34.5395C69.6576 29.6262 68.7551 24.2028 65.5504 21.2191C64.835 20.5535 64.0298 20.0375 63.3361 19.3359C61.0226 16.9958 60.3309 13.0787 58.849 9.87704C55.5262 2.71764 48.1123 -0.416768 41.4374 0.469169C31.8725 1.73894 24.039 9.72513 15.8161 15.1138Z" fill="#33ABA0"/>
<path d="M65.9295 34.5888C65.8425 35.5745 64.8512 37.2292 63.4799 39.0892C61.2325 42.132 57.9674 45.721 56.0036 47.8118C54.9905 48.8914 54.3242 49.5721 54.3242 49.5721V30.8398C54.3242 30.8398 56.702 27.1036 58.4295 26.8635C60.1571 26.6235 63.6434 29.1027 63.6434 29.1027C63.6434 29.1027 66.2205 31.161 65.9295 34.5888Z" fill="#33ABA0"/>
<path d="M63.4799 39.0904C61.2326 42.1332 57.9674 45.7221 56.0036 47.8129C55.8571 47.5265 55.8278 47.1368 55.8146 46.7843C55.7626 45.0229 55.7749 43.2591 55.7881 41.4965C55.8004 39.785 55.8127 38.0745 55.9006 36.3664C55.9838 34.7755 56.1425 33.1485 56.736 31.728C56.87 31.8749 56.9806 32.0511 57.0621 32.2475C57.8096 33.8234 58.2821 35.5617 58.7547 37.2872C58.9884 38.1375 59.2221 38.9914 59.4559 39.8487C59.9799 39.4956 60.4481 39.0302 60.8385 38.4746C61.1976 37.9864 61.518 37.4588 61.8478 36.9416C62.0784 36.5798 62.5282 35.5501 62.8874 35.9374C63.4695 36.5601 63.5168 37.9852 63.4799 39.0904Z" fill="url(#paint0_linear_631_192)"/>
<path d="M56.0697 6.17676H17.3613V61.1849H56.0697V6.17676Z" fill="#33ABA0"/>
<path d="M56.0697 6.17676H17.3613V61.1849H56.0697V6.17676Z" fill="url(#paint1_linear_631_192)"/>
<path d="M50.75 8.83573L17.3613 12.5082C17.5116 12.5082 17.3613 7.40594 17.3613 6.17676H52.5645V6.60813C52.5645 7.19873 52.3734 7.76515 52.0331 8.18287C51.6928 8.60059 51.2313 8.83542 50.75 8.83573Z" fill="url(#paint2_linear_631_192)"/>
<path d="M56.0697 12.5083H17.3613V67.5164H56.0697V12.5083Z" fill="#33ABA0"/>
<path d="M22.8644 12.5083H17.3613V67.5164H22.8644V12.5083Z" fill="url(#paint3_linear_631_192)"/>
<path d="M26.208 22.7881H19.5217V30.9923H26.208V22.7881Z" fill="#E6F5F3"/>
<path d="M33.2658 22.7881H26.5796V30.9923H33.2658V22.7881Z" fill="#E6F5F3"/>
<path d="M40.3244 22.7881H33.6382V30.9923H40.3244V22.7881Z" fill="#E6F5F3"/>
<path d="M47.3818 22.7881H40.6956V30.9923H47.3818V22.7881Z" fill="#E6F5F3"/>
<path d="M26.208 31.3525H19.5217V39.5567H26.208V31.3525Z" fill="#E6F5F3"/>
<path d="M33.2658 31.3525H26.5796V39.5567H33.2658V31.3525Z" fill="#E6F5F3"/>
<path d="M40.3244 31.3525H33.6382V39.5567H40.3244V31.3525Z" fill="#E6F5F3"/>
<path d="M47.3818 31.3525H40.6956V39.5567H47.3818V31.3525Z" fill="#E6F5F3"/>
<path d="M26.208 39.9204H19.5217V48.1246H26.208V39.9204Z" fill="#E6F5F3"/>
<path d="M33.2658 39.9204H26.5796V48.1246H33.2658V39.9204Z" fill="#E6F5F3"/>
<path d="M40.3244 39.9204H33.6382V48.1246H40.3244V39.9204Z" fill="#E6F5F3"/>
<path d="M47.3818 39.9204H40.6956V48.1246H47.3818V39.9204Z" fill="#E6F5F3"/>
<path d="M26.208 48.4849H19.5217V56.6891H26.208V48.4849Z" fill="#E6F5F3"/>
<path d="M33.2658 48.4849H26.5796V56.6891H33.2658V48.4849Z" fill="#E6F5F3"/>
<path d="M40.3244 48.4849H33.6382V56.6891H40.3244V48.4849Z" fill="#E6F5F3"/>
<path d="M47.3818 48.4849H40.6956V56.6891H47.3818V48.4849Z" fill="#E6F5F3"/>
<path d="M26.208 57.0488H19.5217V65.253H26.208V57.0488Z" fill="#E6F5F3"/>
<path d="M33.2658 57.0488H26.5796V65.253H33.2658V57.0488Z" fill="#E6F5F3"/>
<path d="M40.3244 57.0488H33.6382V65.253H40.3244V57.0488Z" fill="#E6F5F3"/>
<path d="M54.3215 22.7881H47.6353V30.9923H54.3215V22.7881Z" fill="#E6F5F3"/>
<path d="M54.3215 14.2231H47.6353V22.4273H54.3215V14.2231Z" fill="#E6F5F3"/>
<path d="M47.3818 14.2231H40.6956V22.4273H47.3818V14.2231Z" fill="#E6F5F3"/>
<path d="M54.3215 31.3525H47.6353V39.5567H54.3215V31.3525Z" fill="#E6F5F3"/>
<path d="M54.3215 39.9204H47.6353V48.1246H54.3215V39.9204Z" fill="#E6F5F3"/>
<path d="M54.3215 48.4849H47.6353V56.6891H54.3215V48.4849Z" fill="#E6F5F3"/>
<path d="M20.3601 3.95341V8.40165C20.3601 8.64168 20.6087 8.8365 20.9139 8.8365C21.2201 8.8365 21.4677 8.64168 21.4677 8.40165V3.95341C21.4677 3.71337 21.2201 3.51855 20.9139 3.51855C20.6087 3.51855 20.3601 3.71337 20.3601 3.95341Z" fill="#33ABA0"/>
<path d="M25.6543 3.95341V8.40165C25.6543 8.64168 25.9019 8.8365 26.2081 8.8365C26.5143 8.8365 26.7619 8.64168 26.7619 8.40165V3.95341C26.7619 3.71337 26.5143 3.51855 26.2081 3.51855C25.9019 3.51855 25.6543 3.71337 25.6543 3.95341Z" fill="#33ABA0"/>
<path d="M30.9485 3.95341V8.40165C30.9485 8.64168 31.1961 8.8365 31.5023 8.8365C31.8085 8.8365 32.0561 8.64168 32.0561 8.40165V3.95341C32.0561 3.71337 31.8085 3.51855 31.5023 3.51855C31.1961 3.51855 30.9485 3.71337 30.9485 3.95341Z" fill="#33ABA0"/>
<path d="M36.2424 3.95341V8.40165C36.2424 8.64168 36.49 8.8365 36.7962 8.8365C37.1015 8.8365 37.35 8.64168 37.35 8.40165V3.95341C37.35 3.71337 37.1015 3.51855 36.7962 3.51855C36.49 3.51855 36.2424 3.71337 36.2424 3.95341Z" fill="#33ABA0"/>
<path d="M41.5359 3.95341V8.40165C41.5359 8.64168 41.7844 8.8365 42.0906 8.8365C42.3959 8.8365 42.6444 8.64168 42.6444 8.40165V3.95341C42.6444 3.71337 42.3959 3.51855 42.0906 3.51855C41.7844 3.51855 41.5359 3.71337 41.5359 3.95341Z" fill="#33ABA0"/>
<path d="M46.8301 3.95341V8.40165C46.8301 8.64168 47.0786 8.8365 47.3839 8.8365C47.6901 8.8365 47.9386 8.64168 47.9386 8.40165V3.95341C47.9386 3.71337 47.6901 3.51855 47.3839 3.51855C47.0786 3.51855 46.8301 3.71337 46.8301 3.95341Z" fill="#33ABA0"/>
<path d="M52.0107 3.95341V8.40165C52.0107 8.64168 52.2593 8.8365 52.5645 8.8365C52.8707 8.8365 53.1183 8.64168 53.1183 8.40165V3.95341C53.1183 3.71337 52.8707 3.51855 52.5645 3.51855C52.2593 3.51855 52.0107 3.71337 52.0107 3.95341Z" fill="#33ABA0"/>
<path d="M56.9513 6.17676H56.0706V67.5163H56.9513V6.17676Z" fill="url(#paint4_linear_631_192)"/>
<path d="M42.2399 15.4261C42.2401 15.5553 42.209 15.6817 42.1506 15.7893C42.0922 15.8968 42.0092 15.9807 41.9119 16.0302C41.8146 16.0798 41.7076 16.0928 41.6043 16.0676C41.501 16.0425 41.4061 15.9803 41.3316 15.8889C41.2572 15.7975 41.2065 15.6811 41.186 15.5544C41.1655 15.4276 41.1761 15.2962 41.2165 15.1769C41.2569 15.0576 41.3252 14.9556 41.4128 14.884C41.5005 14.8123 41.6035 14.7742 41.7088 14.7744C41.8496 14.7747 41.9845 14.8435 42.0841 14.9656C42.1836 15.0878 42.2397 15.2534 42.2399 15.4261Z" fill="url(#paint5_linear_631_192)"/>
<path d="M42.2399 23.9935C42.2401 24.1227 42.209 24.2491 42.1506 24.3566C42.0922 24.4642 42.0092 24.548 41.9119 24.5976C41.8146 24.6471 41.7076 24.6602 41.6043 24.635C41.501 24.6099 41.4061 24.5477 41.3316 24.4563C41.2572 24.3649 41.2065 24.2485 41.186 24.1217C41.1655 23.995 41.1761 23.8636 41.2165 23.7443C41.2569 23.6249 41.3252 23.523 41.4128 23.4513C41.5005 23.3797 41.6035 23.3416 41.7088 23.3418C41.8496 23.3421 41.9845 23.4109 42.0841 23.533C42.1836 23.6552 42.2397 23.8207 42.2399 23.9935Z" fill="url(#paint6_linear_631_192)"/>
<path d="M43.5392 23.9935C43.5394 24.1227 43.5083 24.2491 43.4499 24.3566C43.3916 24.4642 43.3085 24.548 43.2112 24.5976C43.114 24.6471 43.0069 24.6602 42.9036 24.635C42.8003 24.6099 42.7054 24.5477 42.6309 24.4563C42.5565 24.3649 42.5058 24.2485 42.4853 24.1217C42.4648 23.995 42.4754 23.8636 42.5158 23.7443C42.5562 23.6249 42.6245 23.523 42.7122 23.4513C42.7998 23.3797 42.9028 23.3416 43.0081 23.3418C43.1489 23.3421 43.2838 23.4109 43.3834 23.533C43.4829 23.6552 43.539 23.8207 43.5392 23.9935Z" fill="url(#paint7_linear_631_192)"/>
<path d="M44.8464 23.9935C44.8465 24.1227 44.8155 24.2491 44.7571 24.3566C44.6987 24.4642 44.6156 24.548 44.5183 24.5976C44.4211 24.6471 44.314 24.6602 44.2107 24.635C44.1074 24.6099 44.0125 24.5477 43.9381 24.4563C43.8636 24.3649 43.8129 24.2485 43.7924 24.1217C43.7719 23.995 43.7825 23.8636 43.8229 23.7443C43.8633 23.6249 43.9316 23.523 44.0193 23.4513C44.1069 23.3797 44.2099 23.3416 44.3152 23.3418C44.456 23.3421 44.591 23.4109 44.6905 23.533C44.7901 23.6552 44.8461 23.8207 44.8464 23.9935Z" fill="url(#paint8_linear_631_192)"/>
<path d="M42.2399 41.2456C42.2399 41.3748 42.2087 41.5011 42.1502 41.6085C42.0917 41.7158 42.0085 41.7995 41.9112 41.8489C41.814 41.8983 41.7069 41.9111 41.6037 41.8859C41.5005 41.8606 41.4057 41.7983 41.3313 41.7069C41.2569 41.6154 41.2063 41.499 41.1859 41.3723C41.1655 41.2456 41.1761 41.1143 41.2166 40.995C41.257 40.8757 41.3253 40.7738 41.4129 40.7022C41.5006 40.6306 41.6035 40.5925 41.7088 40.5928C41.7786 40.5928 41.8478 40.6097 41.9123 40.6425C41.9768 40.6753 42.0354 40.7234 42.0847 40.7841C42.134 40.8447 42.1731 40.9167 42.1998 40.9959C42.2264 41.0751 42.24 41.16 42.2399 41.2456Z" fill="url(#paint9_linear_631_192)"/>
<path d="M20.6446 41.8962C20.938 41.8962 21.1758 41.6044 21.1758 41.2445C21.1758 40.8845 20.938 40.5928 20.6446 40.5928C20.3513 40.5928 20.1135 40.8845 20.1135 41.2445C20.1135 41.6044 20.3513 41.8962 20.6446 41.8962Z" fill="#FF2235"/>
<path d="M43.5392 41.2456C43.5392 41.3748 43.508 41.5011 43.4495 41.6085C43.391 41.7158 43.3078 41.7995 43.2106 41.8489C43.1133 41.8983 43.0062 41.9111 42.903 41.8859C42.7998 41.8606 42.705 41.7983 42.6306 41.7069C42.5562 41.6154 42.5056 41.499 42.4852 41.3723C42.4648 41.2456 42.4755 41.1143 42.5159 40.995C42.5563 40.8757 42.6246 40.7738 42.7123 40.7022C42.7999 40.6306 42.9028 40.5925 43.0081 40.5928C43.0779 40.5928 43.1471 40.6097 43.2116 40.6425C43.2761 40.6753 43.3347 40.7234 43.384 40.7841C43.4333 40.8447 43.4724 40.9167 43.4991 40.9959C43.5257 41.0751 43.5393 41.16 43.5392 41.2456Z" fill="url(#paint10_linear_631_192)"/>
<path d="M44.8464 41.2456C44.8464 41.3748 44.8151 41.5011 44.7566 41.6085C44.6981 41.7158 44.615 41.7995 44.5177 41.8489C44.4204 41.8983 44.3134 41.9111 44.2101 41.8859C44.1069 41.8606 44.0121 41.7983 43.9377 41.7069C43.8634 41.6154 43.8128 41.499 43.7923 41.3723C43.7719 41.2456 43.7826 41.1143 43.823 40.995C43.8634 40.8757 43.9318 40.7738 44.0194 40.7022C44.107 40.6306 44.21 40.5925 44.3152 40.5928C44.3851 40.5928 44.4542 40.6097 44.5187 40.6425C44.5832 40.6753 44.6418 40.7234 44.6911 40.7841C44.7405 40.8447 44.7796 40.9167 44.8062 40.9959C44.8328 41.0751 44.8465 41.16 44.8464 41.2456Z" fill="url(#paint11_linear_631_192)"/>
<path d="M65.8661 23.7124C65.7177 24.4569 65.9162 25.4889 65.6346 26.1719C65.162 27.3199 63.7804 28.0818 63.5762 29.3423C63.5639 29.4153 62.0263 30.3245 61.2334 30.0137C60.8186 29.8525 60.6078 29.3562 60.9272 28.2337C61.0274 27.8858 61.5888 27.7559 61.74 27.4324L61.7088 27.4034C60.9414 26.6926 60.8583 25.1863 61.017 24.1809C61.1758 23.1755 61.5396 22.2095 61.9299 21.2911C62.2305 20.5838 62.909 20.2 63.5592 20.2127C64.3767 20.2301 65.2395 20.6313 65.6648 21.4883C65.9899 22.1411 66.0135 22.9679 65.8661 23.7124Z" fill="url(#paint12_linear_631_192)"/>
<path d="M62.0899 18.2981C61.6712 18.5694 61.2261 18.8895 60.7574 18.8025C60.7455 18.9406 60.7639 19.0801 60.8108 19.2066C60.8576 19.333 60.9312 19.4417 61.0239 19.5215L60.7328 19.6015C60.7208 19.6024 60.7091 19.6066 60.6987 19.6138C60.6882 19.621 60.6792 19.6311 60.6723 19.6432C60.6687 19.6562 60.6675 19.6699 60.6686 19.6835C60.6698 19.6971 60.6733 19.7103 60.6789 19.7221C60.7506 19.9271 60.8683 20.1028 61.0182 20.2288C60.9662 20.3657 60.7782 20.3355 60.7139 20.4607C60.6997 20.4979 60.6923 20.5385 60.6923 20.5796C60.6923 20.6207 60.6997 20.6613 60.7139 20.6985C60.7787 20.9148 60.8897 21.1058 61.0352 21.2516C60.8613 21.4835 60.97 21.9126 61.2101 22.0181C61.4501 22.1236 61.7383 21.923 61.8206 21.625C61.8313 21.7591 61.8061 21.8939 61.7487 22.0088C62.5416 22.1619 63.3894 22.3057 64.1189 21.8929C64.0848 21.9856 64.0662 22.0857 64.0641 22.1874C64.2402 22.2551 64.4269 22.2694 64.6085 22.2291C64.6463 22.7068 64.6113 23.1889 64.5055 23.6508C64.4402 23.9384 64.3467 24.2167 64.3051 24.5101C64.2526 24.8055 64.2956 25.1144 64.4251 25.3717C64.5508 25.3577 64.6397 25.2128 64.6879 25.0702C64.7225 24.9215 64.7751 24.78 64.8438 24.6504C65.0328 24.379 65.4259 24.4788 65.5781 24.7791C65.7302 25.0794 65.6726 25.483 65.5271 25.7856C65.4371 25.9641 65.3182 26.118 65.1778 26.2377C65.0373 26.3574 64.8783 26.4404 64.7105 26.4814C64.7379 26.8049 64.7663 27.1285 64.7937 27.4508C65.2917 26.871 65.8493 26.3736 66.2973 25.7393C66.7452 25.105 67.0845 24.2932 67.0269 23.456C66.9919 22.94 66.8086 22.4495 66.7944 21.9311C66.7878 21.6992 66.8161 21.4615 66.8085 21.2272C66.7909 20.854 66.6843 20.4954 66.502 20.1959C66.3197 19.8964 66.0698 19.6691 65.7832 19.5423C65.5422 19.4414 65.2766 19.4125 65.063 19.242C64.7975 19.0309 64.6595 18.6378 64.3958 18.4222C64.1123 18.1902 63.6719 18.0951 63.3421 17.9803C62.913 17.8342 62.467 18.0557 62.0899 18.2981Z" fill="#3F3D56"/>
<path d="M56.1443 29.269C56.1106 29.2944 56.0816 29.3281 56.0591 29.368C56.0367 29.408 56.0213 29.4533 56.0139 29.5009C56.0177 29.5509 56.0345 29.598 56.062 29.6353C56.0894 29.6725 56.1259 29.6978 56.1661 29.7073C56.2469 29.7247 56.3298 29.72 56.4089 29.6934L56.889 29.5775C56.6297 29.7549 56.4144 30.0154 56.2662 30.3312C56.2487 30.3676 56.2402 30.4094 56.2417 30.4516C56.2432 30.4938 56.2547 30.5346 56.2748 30.5689C56.339 30.6687 56.4477 30.6292 56.5346 30.5875L56.9514 30.3834L56.6679 30.7208C56.5797 30.8172 56.5027 30.928 56.4392 31.0502C56.4118 31.1077 56.3914 31.1698 56.3787 31.2345C56.3736 31.262 56.3745 31.2905 56.3812 31.3174C56.3879 31.3443 56.4003 31.3685 56.417 31.3878C56.4337 31.407 56.4542 31.4205 56.4765 31.427C56.4988 31.4335 56.5221 31.4327 56.5441 31.4247C56.7175 31.3649 56.8786 31.2606 57.0166 31.1186C56.9142 31.2948 56.8001 31.4605 56.6755 31.6137C56.5508 31.7681 56.4802 31.9762 56.4789 32.1935C56.4794 32.2169 56.4857 32.2395 56.4968 32.2585C56.5109 32.2755 56.5292 32.2861 56.5488 32.2886C56.7029 32.3199 56.8427 32.1819 56.959 32.0567L57.3871 31.5801C57.4561 31.5108 57.5168 31.43 57.5676 31.3401C57.5962 31.2883 57.6123 31.2275 57.6139 31.165C57.611 31.1252 57.5999 31.0871 57.5815 31.0542C57.5632 31.0213 57.5382 30.9947 57.509 30.9771C57.4799 30.9595 57.4475 30.9514 57.415 30.9537C57.3826 30.9559 57.3511 30.9684 57.3238 30.9899C57.336 30.889 57.3682 30.795 57.388 30.6965C57.4125 30.5993 57.4072 30.4945 57.3729 30.4019C57.3545 30.3567 57.3229 30.3217 57.2843 30.3038C57.2458 30.286 57.2032 30.2866 57.165 30.3057C57.2152 30.185 57.2473 30.0542 57.2595 29.9195C57.2646 29.8515 57.2543 29.783 57.2298 29.7217C57.2053 29.6603 57.1675 29.6084 57.1206 29.5717C57.0946 29.5592 57.0709 29.5407 57.0506 29.5172C57.0128 29.4603 57.0431 29.3792 57.0591 29.3084C57.0749 29.255 57.0795 29.1976 57.0723 29.1415C57.0652 29.0853 57.0467 29.0323 57.0184 28.9873C56.9901 28.9423 56.953 28.9068 56.9106 28.8841C56.8682 28.8614 56.8217 28.8522 56.7756 28.8574C56.528 28.8933 56.3248 29.0812 56.1443 29.269Z" fill="url(#paint13_linear_631_192)"/>
<path d="M63.8985 33.6272C64.9853 32.4491 66.3311 33.342 65.8585 35.0246C64.8369 38.6646 62.6983 47.0044 60.6674 47.0044C58.0212 47.0044 56.9514 41.247 56.9514 41.247L58.1734 38.2123C58.1734 38.2123 59.9019 42.8658 60.7723 41.6065C61.6427 40.3471 62.1568 35.5765 63.8484 33.6817L63.8985 33.6272Z" fill="#33ABA0"/>
<path d="M57.7726 38.009C57.7564 37.7389 57.7527 37.4679 57.7612 37.1973C57.7556 36.0161 57.4713 34.8622 56.9428 33.875C56.8872 33.973 56.8632 34.0929 56.8757 34.2113L56.8899 37.2912C56.8984 37.5466 56.8844 37.8024 56.8483 38.0542C56.8162 38.2374 56.7614 38.4125 56.7189 38.5934C56.6292 38.9695 56.5972 39.3627 56.6243 39.753C56.6324 39.9627 56.6786 40.1676 56.7595 40.3525C56.801 40.4444 56.8597 40.5229 56.9306 40.5818C57.0015 40.6406 57.0828 40.6781 57.1678 40.6912C57.2235 40.6912 57.4513 40.1114 57.4843 40.0325C57.5851 39.8006 57.6797 39.5667 57.7679 39.3309C57.8331 39.1524 57.972 38.8891 57.9474 38.6885C57.92 38.4636 57.7953 38.256 57.7726 38.009Z" fill="url(#paint14_linear_631_192)"/>
<path d="M62.823 28.2177C62.5943 28.5331 62.3675 28.8497 62.1388 29.1662C61.964 29.4359 61.7562 29.6706 61.5226 29.862C61.4319 29.9278 61.3347 29.9793 61.2334 30.0151C60.8186 29.8539 60.6078 29.3576 60.9272 28.2351C61.0274 27.8872 61.5888 27.7573 61.74 27.4338L61.7088 27.4048C61.8174 27.4678 61.932 27.5138 62.05 27.5416C62.2957 27.5868 62.9005 27.3526 62.9752 27.799C63.0016 27.9533 62.9128 28.0982 62.823 28.2177Z" fill="url(#paint15_linear_631_192)"/>
<path d="M35.3438 52.505L36.2964 54.3209C36.3213 54.3684 36.3549 54.408 36.3944 54.4367C36.434 54.4654 36.4785 54.4824 36.5244 54.4864C36.5702 54.4903 36.6162 54.4811 36.6587 54.4594C36.7011 54.4377 36.7389 54.4042 36.7689 54.3615L39.3924 50.6508C39.4296 50.5984 39.4537 50.5341 39.4619 50.4654C39.47 50.3967 39.4619 50.3266 39.4385 50.2634C39.4151 50.2002 39.3774 50.1465 39.3298 50.1089C39.2823 50.0713 39.2269 50.0513 39.1703 50.0513H39.1486C39.1053 50.0513 39.0626 50.0629 39.0234 50.0853C38.9842 50.1078 38.9495 50.1405 38.9217 50.1811L36.8691 53.2008C36.8397 53.2442 36.8023 53.2786 36.7601 53.3012C36.7179 53.3237 36.6719 53.3338 36.6259 53.3305C36.5799 53.3272 36.5352 53.3107 36.4954 53.2823C36.4555 53.254 36.4217 53.2145 36.3966 53.1671L35.838 52.1235C35.807 52.0656 35.7631 52.0198 35.7115 51.9917C35.6599 51.9635 35.6028 51.9541 35.547 51.9646C35.4999 51.9744 35.4554 51.9982 35.4175 52.0338C35.3796 52.0694 35.3493 52.1159 35.3293 52.1691C35.3093 52.2223 35.3001 52.2807 35.3027 52.3392C35.3052 52.3978 35.3193 52.4547 35.3438 52.505Z" fill="#33ABA0"/>
<path d="M23.8738 61.6883L25.0731 63.1366C25.1153 63.1877 25.1442 63.253 25.156 63.3242C25.1679 63.3954 25.1622 63.4694 25.1397 63.5366C25.1172 63.6039 25.0789 63.6614 25.0297 63.7019C24.9805 63.7424 24.9226 63.764 24.8633 63.764H24.8123C24.733 63.7639 24.657 63.7256 24.6006 63.6573L23.4334 62.224C23.3773 62.1555 23.3014 62.1171 23.2222 62.1171C23.1431 62.1171 23.0671 62.1555 23.011 62.224L21.8439 63.6573C21.7879 63.7256 21.7121 63.764 21.6331 63.764H21.5811C21.5219 63.764 21.464 63.7424 21.4148 63.7019C21.3655 63.6614 21.3272 63.6039 21.3047 63.5366C21.2823 63.4694 21.2766 63.3954 21.2884 63.3242C21.3003 63.253 21.3291 63.1877 21.3713 63.1366L22.5716 61.6883C22.5996 61.6543 22.6218 61.6138 22.637 61.5693C22.6521 61.5247 22.6599 61.4768 22.6599 61.4285C22.6599 61.3802 22.6521 61.3324 22.637 61.2878C22.6218 61.2432 22.5996 61.2027 22.5716 61.1688L21.36 59.6822C21.3184 59.6309 21.2901 59.5657 21.2786 59.4948C21.2672 59.4238 21.2731 59.3503 21.2956 59.2835C21.3182 59.2166 21.3563 59.1595 21.4053 59.1192C21.4542 59.0789 21.5118 59.0573 21.5707 59.0571C21.6488 59.0568 21.7239 59.0943 21.7796 59.1615L23.0082 60.6481C23.064 60.7155 23.1392 60.7532 23.2175 60.7532C23.2958 60.7532 23.371 60.7155 23.4268 60.6481L24.6554 59.1615C24.7111 59.0943 24.7862 59.0568 24.8643 59.0571C24.9233 59.0571 24.981 59.0785 25.0301 59.1187C25.0792 59.1589 25.1175 59.2161 25.1401 59.2829C25.1628 59.3498 25.1688 59.4234 25.1573 59.4945C25.1459 59.5655 25.1176 59.6308 25.0759 59.6822L23.8644 61.1688C23.837 61.2035 23.8155 61.2446 23.8011 61.2896C23.7868 61.3346 23.7798 61.3826 23.7807 61.4309C23.7816 61.4793 23.7903 61.5269 23.8062 61.5711C23.8222 61.6152 23.8452 61.6551 23.8738 61.6883Z" fill="#33ABA0"/>
<path d="M13.1787 57.1348H13.4717L13.6182 65.2589L13.4717 63.9208H13.1787V57.1348Z" fill="#33ABA0"/>
<path d="M13.7646 57.1348H13.4717V63.9208H13.7646V57.1348Z" fill="#33ABA0"/>
<path d="M11.089 58.0889C10.9236 58.7163 11.4463 59.9582 11.9528 60.6006C12.4594 61.243 12.8034 61.0958 13.3194 60.9126C13.4847 60.2852 13.6255 59.8573 13.1181 59.2149C12.6106 58.5725 11.605 57.9057 11.089 58.0889Z" fill="#33ABA0"/>
<path d="M15.9004 58.1201C15.3892 57.916 14.377 58.5585 13.8535 59.18C13.3299 59.8016 13.4499 60.2237 13.5992 60.8568C14.1105 61.0597 14.4592 61.2325 14.9828 60.6098C15.5064 59.9871 16.0507 58.7533 15.9004 58.1201Z" fill="#33ABA0"/>
<path d="M13.4715 55.4961H12.1636C12.1636 56.636 12.7486 57.5602 13.4706 57.5602L13.7787 56.5479L13.4715 55.4961Z" fill="#33ABA0"/>
<path d="M13.4717 55.4961H14.7787C14.7787 56.636 14.1937 57.5602 13.4717 57.5602V55.4961Z" fill="#33ABA0"/>
<path d="M10.9958 53.1719C10.8304 53.7993 11.353 55.0424 11.8605 55.6836C12.368 56.3249 12.711 56.1799 13.2261 55.9956C13.3915 55.3682 13.5323 54.9403 13.0248 54.2979C12.5173 53.6555 11.5118 52.9887 10.9958 53.1719Z" fill="#33ABA0"/>
<path d="M15.8077 53.1994C15.2954 52.9964 14.2833 53.6377 13.7607 54.2604C13.2381 54.8831 13.3562 55.3041 13.5055 55.936C14.0168 56.139 14.3665 56.3118 14.8891 55.689C15.4117 55.0663 15.957 53.8337 15.8077 53.1994Z" fill="#33ABA0"/>
<path d="M13.4479 51.1987C12.9641 51.4863 12.5974 52.8083 12.5671 53.7023C12.5369 54.5964 12.913 55.6481 13.378 55.9786C13.8619 55.691 14.1614 54.6706 14.1888 53.7754C14.2162 52.8802 13.9129 51.5292 13.4479 51.1987Z" fill="#33ABA0"/>
<path d="M10.8867 62.8854L11.3479 67.4589H13.4809L14.3522 64.8567L13.4809 62.7578L10.8867 62.8854Z" fill="#33ABA0"/>
<path d="M16.0761 62.8854L15.6149 67.4589H13.481V62.7578L16.0761 62.8854Z" fill="#33ABA0"/>
<path d="M14.4318 62.7876L14.4082 62.8016L13.6843 63.2422L13.4867 63.3651H10.6053C10.5183 63.3651 10.4349 63.3227 10.3734 63.2473C10.3119 63.1718 10.2773 63.0695 10.2773 62.9627V61.94C10.2773 61.8333 10.3119 61.7309 10.3734 61.6554C10.4349 61.58 10.5183 61.5376 10.6053 61.5376H13.4867L14.4318 62.7876Z" fill="#33ABA0"/>
<path d="M16.3579 63.3647H13.4811V61.5372H16.3579C16.4448 61.5372 16.5282 61.5796 16.5897 61.6551C16.6512 61.7305 16.6858 61.8329 16.6858 61.9396V62.9624C16.6858 63.0691 16.6512 63.1714 16.5897 63.2469C16.5282 63.3224 16.4448 63.3647 16.3579 63.3647Z" fill="#33ABA0"/>
<path d="M11.089 58.0889C10.9236 58.7163 11.4463 59.9582 11.9528 60.6006C12.4594 61.243 12.8034 61.0958 13.3194 60.9126C13.4847 60.2852 13.6255 59.8573 13.1181 59.2149C12.6106 58.5725 11.605 57.9057 11.089 58.0889Z" fill="url(#paint16_linear_631_192)"/>
<path d="M15.9004 58.1201C15.3892 57.916 14.377 58.5585 13.8535 59.18C13.3299 59.8016 13.4499 60.2237 13.5992 60.8568C14.1105 61.0597 14.4592 61.2325 14.9828 60.6098C15.5064 59.9871 16.0507 58.7533 15.9004 58.1201Z" fill="url(#paint17_linear_631_192)"/>
<path d="M14.7607 55.8312C14.6596 56.8111 14.1209 57.559 13.4717 57.559V55.793C13.4821 55.8405 13.4944 55.8881 13.5057 55.9379C13.9735 56.1235 14.3062 56.2846 14.7607 55.8312Z" fill="url(#paint18_linear_631_192)"/>
<path d="M10.9958 53.1719C10.8304 53.7993 11.353 55.0424 11.8605 55.6836C12.368 56.3249 12.711 56.1799 13.2261 55.9956C13.3915 55.3682 13.5323 54.9403 13.0248 54.2979C12.5173 53.6555 11.5118 52.9887 10.9958 53.1719Z" fill="url(#paint19_linear_631_192)"/>
<path d="M13.482 63.3647V67.457H11.348L10.9351 63.3647H13.482Z" fill="url(#paint20_linear_631_192)"/>
<path d="M16.0279 63.3647L15.6149 67.457H13.4819V63.3647H16.0279Z" fill="url(#paint21_linear_631_192)"/>
<path d="M16.6856 61.9859V63.0087C16.6856 63.1154 16.651 63.2177 16.5895 63.2932C16.528 63.3686 16.4446 63.411 16.3576 63.411H13.4866V61.5835H16.3624C16.4485 61.585 16.5307 61.6281 16.5912 61.7034C16.6517 61.7787 16.6856 61.8802 16.6856 61.9859Z" fill="url(#paint22_linear_631_192)"/>
<path opacity="0.18" d="M11.5966 67.4639L6.17575 68.7395C6.08803 68.7507 6.00753 68.8042 5.95197 68.8883C5.89641 68.9723 5.87033 69.08 5.87948 69.1876C5.88863 69.2953 5.93225 69.3941 6.00075 69.4622C6.06925 69.5304 6.15702 69.5624 6.24474 69.5512H67.4708C67.5571 69.5556 67.6414 69.5185 67.7057 69.4479C67.77 69.3772 67.8094 69.2786 67.8154 69.1729C67.8215 69.0673 67.7937 68.9629 67.738 68.8819C67.6823 68.801 67.6031 68.7499 67.5172 68.7395L59.6156 67.5196H59.5702L11.6656 67.4616C11.6426 67.4595 11.6194 67.4603 11.5966 67.4639Z" fill="#1D2741"/>
<path d="M14.8891 55.692C14.8447 55.7442 14.8022 55.7917 14.7606 55.8323C14.306 56.2857 13.9734 56.1245 13.5056 55.939C13.4942 55.8891 13.482 55.8416 13.4716 55.794C13.3411 55.2386 13.2778 54.8362 13.7607 54.2633C14.2834 53.6406 15.2955 52.9994 15.8077 53.2023C15.957 53.8354 15.4127 55.0704 14.8891 55.692Z" fill="url(#paint23_linear_631_192)"/>
</g>
<defs>
<linearGradient id="paint0_linear_631_192" x1="61.0672" y1="33.1926" x2="39.1765" y2="66.7626" gradientUnits="userSpaceOnUse">
<stop offset="0.02" stop-opacity="0"/>
<stop offset="0.32" stop-color="#17161F" stop-opacity="0.36"/>
<stop offset="0.76" stop-color="#343247" stop-opacity="0.82"/>
<stop offset="0.99" stop-color="#3F3D56"/>
</linearGradient>
<linearGradient id="paint1_linear_631_192" x1="39.1741" y1="-7.72573" x2="36.4721" y2="22.5103" gradientUnits="userSpaceOnUse">
<stop offset="0.01"/>
<stop offset="0.1" stop-opacity="0.77"/>
<stop offset="0.99" stop-opacity="0"/>
</linearGradient>
<linearGradient id="paint2_linear_631_192" x1="38.4587" y1="32.2133" x2="28.9115" y2="-9.28251" gradientUnits="userSpaceOnUse">
<stop offset="0.01"/>
<stop offset="0.1" stop-opacity="0.77"/>
<stop offset="0.99" stop-opacity="0"/>
</linearGradient>
<linearGradient id="paint3_linear_631_192" x1="29.8426" y1="39.977" x2="-24.1275" y2="40.1064" gradientUnits="userSpaceOnUse">
<stop offset="0.03" stop-opacity="0"/>
<stop offset="0.62" stop-color="#292838" stop-opacity="0.66"/>
<stop offset="0.99" stop-color="#3F3D56"/>
</linearGradient>
<linearGradient id="paint4_linear_631_192" x1="60.8336" y1="36.7752" x2="46.1703" y2="36.9347" gradientUnits="userSpaceOnUse">
<stop stop-color="#68E1FD"/>
<stop offset="0.01" stop-color="#67DDF9"/>
<stop offset="0.12" stop-color="#5CB3CE"/>
<stop offset="0.24" stop-color="#538EA9"/>
<stop offset="0.37" stop-color="#4C718B"/>
<stop offset="0.5" stop-color="#465A73"/>
<stop offset="0.63" stop-color="#424A63"/>
<stop offset="0.79" stop-color="#404059"/>
<stop offset="0.99" stop-color="#3F3D56"/>
</linearGradient>
<linearGradient id="paint5_linear_631_192" x1="41.6785" y1="14.8788" x2="41.9455" y2="18.1799" gradientUnits="userSpaceOnUse">
<stop stop-color="#183866"/>
<stop offset="1" stop-color="#1A7FC1"/>
</linearGradient>
<linearGradient id="paint6_linear_631_192" x1="41.6785" y1="23.4462" x2="41.9455" y2="26.7485" gradientUnits="userSpaceOnUse">
<stop stop-color="#183866"/>
<stop offset="1" stop-color="#1A7FC1"/>
</linearGradient>
<linearGradient id="paint7_linear_631_192" x1="42.9826" y1="23.4462" x2="43.2481" y2="26.7485" gradientUnits="userSpaceOnUse">
<stop stop-color="#183866"/>
<stop offset="1" stop-color="#1A7FC1"/>
</linearGradient>
<linearGradient id="paint8_linear_631_192" x1="44.2859" y1="23.4462" x2="44.5514" y2="26.7485" gradientUnits="userSpaceOnUse">
<stop stop-color="#183866"/>
<stop offset="1" stop-color="#1A7FC1"/>
</linearGradient>
<linearGradient id="paint9_linear_631_192" x1="41.6786" y1="40.6971" x2="41.9455" y2="43.9994" gradientUnits="userSpaceOnUse">
<stop stop-color="#183866"/>
<stop offset="1" stop-color="#1A7FC1"/>
</linearGradient>
<linearGradient id="paint10_linear_631_192" x1="42.9826" y1="40.6971" x2="43.2481" y2="43.9995" gradientUnits="userSpaceOnUse">
<stop stop-color="#183866"/>
<stop offset="1" stop-color="#1A7FC1"/>
</linearGradient>
<linearGradient id="paint11_linear_631_192" x1="44.2859" y1="40.6971" x2="44.5514" y2="43.9995" gradientUnits="userSpaceOnUse">
<stop stop-color="#183866"/>
<stop offset="1" stop-color="#1A7FC1"/>
</linearGradient>
<linearGradient id="paint12_linear_631_192" x1="67.2752" y1="27.3199" x2="58.0953" y2="24.4025" gradientUnits="userSpaceOnUse">
<stop stop-color="#ECC4D7"/>
<stop offset="0.16" stop-color="#EDCBD5"/>
<stop offset="0.42" stop-color="#EFD4D1"/>
<stop offset="0.7" stop-color="#F2EAC9"/>
</linearGradient>
<linearGradient id="paint13_linear_631_192" x1="56.0139" y1="30.5817" x2="57.6139" y2="30.5817" gradientUnits="userSpaceOnUse">
<stop stop-color="#ECC4D7"/>
<stop offset="0.42" stop-color="#EFD4D1"/>
<stop offset="1" stop-color="#F2EAC9"/>
</linearGradient>
<linearGradient id="paint14_linear_631_192" x1="56.6158" y1="37.2877" x2="57.9512" y2="37.2877" gradientUnits="userSpaceOnUse">
<stop stop-color="#ECC4D7"/>
<stop offset="0.42" stop-color="#EFD4D1"/>
<stop offset="1" stop-color="#F2EAC9"/>
</linearGradient>
<linearGradient id="paint15_linear_631_192" x1="61.206" y1="29.1697" x2="56.6846" y2="33.4973" gradientUnits="userSpaceOnUse">
<stop stop-color="#ECC4D7"/>
<stop offset="0.42" stop-color="#EFD4D1"/>
<stop offset="1" stop-color="#F2EAC9"/>
</linearGradient>
<linearGradient id="paint16_linear_631_192" x1="13.1001" y1="57.0847" x2="11.0813" y2="60.6986" gradientUnits="userSpaceOnUse">
<stop offset="0.01"/>
<stop offset="0.1" stop-opacity="0.77"/>
<stop offset="0.99" stop-opacity="0"/>
</linearGradient>
<linearGradient id="paint17_linear_631_192" x1="16.5762" y1="59.8155" x2="12.094" y2="59.347" gradientUnits="userSpaceOnUse">
<stop offset="0.01"/>
<stop offset="0.1" stop-opacity="0.77"/>
<stop offset="0.99" stop-opacity="0"/>
</linearGradient>
<linearGradient id="paint18_linear_631_192" x1="16.7056" y1="54.3087" x2="10.5511" y2="57.4473" gradientUnits="userSpaceOnUse">
<stop offset="0.01"/>
<stop offset="0.1" stop-opacity="0.77"/>
<stop offset="0.99" stop-opacity="0"/>
</linearGradient>
<linearGradient id="paint19_linear_631_192" x1="15.7295" y1="49.4252" x2="8.29291" y2="56.4669" gradientUnits="userSpaceOnUse">
<stop offset="0.01"/>
<stop offset="0.1" stop-opacity="0.77"/>
<stop offset="0.99" stop-opacity="0"/>
</linearGradient>
<linearGradient id="paint20_linear_631_192" x1="9.72067" y1="64.4907" x2="16.1026" y2="65.9382" gradientUnits="userSpaceOnUse">
<stop offset="0.01"/>
<stop offset="0.1" stop-opacity="0.77"/>
<stop offset="0.99" stop-opacity="0"/>
</linearGradient>
<linearGradient id="paint21_linear_631_192" x1="14.2682" y1="62.5484" x2="17.0329" y2="73.3485" gradientUnits="userSpaceOnUse">
<stop offset="0.01"/>
<stop offset="0.1" stop-opacity="0.77"/>
<stop offset="0.99" stop-opacity="0"/>
</linearGradient>
<linearGradient id="paint22_linear_631_192" x1="15.1064" y1="60.1525" x2="15.0196" y2="65.659" gradientUnits="userSpaceOnUse">
<stop offset="0.01"/>
<stop offset="0.1" stop-opacity="0.77"/>
<stop offset="0.99" stop-opacity="0"/>
</linearGradient>
<linearGradient id="paint23_linear_631_192" x1="12.6758" y1="51.8827" x2="18.3188" y2="56.9681" gradientUnits="userSpaceOnUse">
<stop offset="0.01"/>
<stop offset="0.1" stop-opacity="0.77"/>
<stop offset="0.99" stop-opacity="0"/>
</linearGradient>
<clipPath id="clip0_631_192">
<rect width="69.0417" height="69.2283" fill="white" transform="translate(0.822998 0.322754)"/>
</clipPath>
</defs>
</svg>
