<svg width="52" height="52" viewBox="0 0 52 52" fill="none" xmlns="http://www.w3.org/2000/svg">
<rect width="50.5484" height="50.685" transform="translate(0.606445 0.866211)" fill="#33ABA0"/>
<path d="M25.8807 5.08984C14.2967 5.08984 4.81885 14.5933 4.81885 26.2086C4.81885 37.8239 14.2967 47.3274 25.8807 47.3274C37.4647 47.3274 46.9425 37.8239 46.9425 26.2086C46.9425 14.5933 37.4647 5.08984 25.8807 5.08984ZM27.9869 26.2086C27.9869 27.0534 27.5656 27.6869 26.9338 28.1093L21.4577 31.2771C20.4046 31.9107 19.1409 31.4883 18.509 30.4324C17.8772 29.3764 18.2984 28.1093 19.3515 27.4757L23.7745 24.9415V15.6492C23.7745 14.3821 24.617 13.5373 25.8807 13.5373C27.1444 13.5373 27.9869 14.3821 27.9869 15.6492V26.2086Z" fill="#8ACFC8"/>
</svg>
