<svg width="115" height="59" viewBox="0 0 115 59" fill="none" xmlns="http://www.w3.org/2000/svg">
<path fill-rule="evenodd" clip-rule="evenodd" d="M47.3406 18.0704C48.3468 12.205 53.7042 7.62483 60.3131 7.62483C65.6401 7.62483 70.1541 10.6006 72.2316 14.8266C71.8997 14.8849 71.5943 15.0245 71.3281 15.2004C70.8526 15.5148 70.4301 15.9866 70.0535 16.4939C69.6693 17.0115 69.2893 17.6267 68.9139 18.2826C68.5375 18.94 68.1537 19.6598 67.7661 20.3889L67.7027 20.5082L67.7023 20.509C67.3331 21.2037 66.9591 21.9074 66.5736 22.5958C65.7516 24.0637 64.9141 25.3933 64.0393 26.3338C63.6455 26.7571 63.3249 26.9264 63.0894 26.9836C62.8696 27.037 62.6365 27.0145 62.3547 26.8758C61.7247 26.5656 60.9852 25.7376 60.2096 24.3846C58.6908 21.7349 57.3916 17.724 56.5227 14.4004C56.2947 13.5282 56.0333 12.83 55.7171 12.3193C55.4066 11.8177 54.9457 11.3467 54.2779 11.2556C53.62 11.1659 53.0809 11.4901 52.7183 11.8032C52.3436 12.1268 52.0041 12.5679 51.7001 13.0292C51.0897 13.9554 50.4813 15.186 49.922 16.3182L49.9199 16.3225L49.9198 16.3225C49.3421 17.4921 48.8203 18.5484 48.3482 19.2554C48.2534 19.3973 48.1731 19.5038 48.1074 19.5827C48.0121 19.4346 47.9033 19.2348 47.7728 18.973C47.6855 18.798 47.592 18.6005 47.4905 18.3861L47.4904 18.3859L47.4904 18.3859C47.4423 18.2843 47.3924 18.179 47.3406 18.0704ZM44.5924 14.0441C45.2109 12.561 46.0507 11.1888 47.0712 9.96299C45.9748 9.53523 45.2024 8.50774 45.2024 7.3082C45.2024 5.72469 46.5485 4.44101 48.2089 4.44101C49.5634 4.44101 50.7087 5.29518 51.0848 6.46949C53.7486 4.80637 56.9238 3.84448 60.3131 3.84448C68.6102 3.84448 75.6241 9.60903 76.9939 17.3138C77.373 17.3886 77.7862 17.4473 78.2287 17.4901C80.116 17.6728 82.3812 17.5538 84.447 17.3034C84.4231 17.1042 84.4108 16.9014 84.4108 16.6958C84.4108 13.912 86.6675 11.6553 89.4512 11.6553C92.235 11.6553 94.4917 13.912 94.4917 16.6958C94.4917 19.4795 92.235 21.7362 89.4512 21.7362C87.552 21.7362 85.898 20.6858 85.0388 19.1341C84.928 19.1485 84.8166 19.1625 84.7046 19.1762C82.5619 19.4374 80.1334 19.5735 78.0466 19.3715C77.7656 19.3443 77.488 19.3107 77.2158 19.2699C77.2292 19.5351 77.2359 19.802 77.2359 20.0706C77.2359 29.1156 69.5738 36.2968 60.3131 36.2968C51.0524 36.2968 43.3902 29.1156 43.3902 20.0706C43.3902 18.6779 43.5719 17.3294 43.9131 16.0444C43.7035 15.8017 43.4758 15.572 43.2261 15.3606C42.5923 14.8237 42.0673 14.72 41.6112 14.7872C41.1064 14.8616 40.5367 15.1685 39.9034 15.7314C38.7317 16.7727 37.6529 18.3955 36.6647 19.8819C36.5699 20.0244 36.476 20.1657 36.3829 20.3052C36.0931 20.7391 35.7588 21.1231 35.3519 21.3526C34.8868 21.6148 34.3647 21.65 33.8808 21.4232C33.4677 21.2296 33.1741 20.8866 32.9684 20.5899C32.7522 20.2782 32.5604 19.9091 32.3868 19.5385C32.2117 19.1647 32.0387 18.7528 31.869 18.3491L31.8671 18.3445L31.8671 18.3445L31.8671 18.3445C31.6953 17.9357 31.525 17.5304 31.3449 17.139C30.9736 16.3321 30.6081 15.695 30.2207 15.3083C30.209 15.2966 30.1161 15.215 29.7843 15.215C29.4575 15.215 29.015 15.2969 28.4732 15.4736C27.3952 15.8254 26.1187 16.4876 24.9632 17.2329C23.7983 17.9843 22.845 18.7627 22.3743 19.3065C22.2599 19.4386 22.1953 19.5328 22.1642 19.5887C22.1586 19.5989 22.1547 19.6066 22.1522 19.6118C22.1594 19.5919 22.1747 19.5374 22.173 19.4553C22.1683 19.2287 22.0387 19.0037 21.8432 18.8875C21.8135 18.8698 21.7871 18.8576 21.7655 18.8492V20.7254C21.5137 20.7254 21.1796 20.6919 20.8776 20.5124C20.5063 20.2918 20.292 19.9142 20.2832 19.4948C20.2761 19.1539 20.4053 18.8626 20.512 18.6706C20.6282 18.4614 20.7815 18.2584 20.9453 18.0692C21.5873 17.3277 22.7125 16.4354 23.9386 15.6445C25.1741 14.8476 26.6014 14.0961 27.8869 13.6767C28.5268 13.4679 29.181 13.3248 29.7842 13.3248C30.3824 13.3248 31.0528 13.4682 31.5561 13.9705C32.1987 14.612 32.6793 15.5171 33.062 16.3488C33.2555 16.7692 33.4361 17.1992 33.6042 17.5991L33.6116 17.6169C33.7846 18.0285 33.9426 18.4038 34.0985 18.7368C34.2561 19.0731 34.3953 19.3306 34.5217 19.5128C34.5379 19.5362 34.553 19.5571 34.567 19.5757C34.6298 19.5066 34.7116 19.4043 34.811 19.2554C34.9057 19.1137 35.0033 18.9665 35.1038 18.815C36.0612 17.3714 37.2796 15.5345 38.6477 14.3186C39.4123 13.639 40.314 13.0678 41.3357 12.9172C42.4063 12.7595 43.463 13.0842 44.4478 13.9182C44.4966 13.9596 44.5449 14.0016 44.5924 14.0441ZM22.1488 19.6201C22.149 19.6201 22.1503 19.6172 22.1522 19.6118C22.1496 19.6174 22.1486 19.6202 22.1488 19.6201ZM73.1295 17.3114C73.343 18.201 73.4556 19.1248 73.4556 20.0706C73.4556 26.8608 67.657 32.5165 60.3131 32.5165C53.4499 32.5165 47.9364 27.5771 47.2439 21.3884C47.3429 21.453 47.4516 21.5094 47.5709 21.5525C48.0948 21.7422 48.5937 21.6041 48.9833 21.3362C49.3343 21.0948 49.6394 20.7253 49.92 20.3052C50.4615 19.4944 51.0278 18.3476 51.5694 17.2511L51.6167 17.1553C52.1917 15.9912 52.7459 14.8773 53.2784 14.0693C53.5458 13.6635 53.7728 13.3899 53.9537 13.2337C53.9782 13.2126 53.9996 13.1955 54.0182 13.1815C54.0432 13.213 54.074 13.256 54.11 13.3142C54.2819 13.5919 54.4857 14.0814 54.694 14.8784C55.5706 18.2318 56.9199 22.4464 58.5698 25.3246C59.3785 26.7356 60.3534 27.9973 61.5198 28.5716C62.1363 28.8751 62.822 28.9936 63.5354 28.8204C64.2333 28.651 64.8605 28.2261 65.4232 27.6212C66.4612 26.5053 67.3895 25.0074 68.2228 23.5193C68.6187 22.8123 69.0017 22.0917 69.3686 21.4012L69.3691 21.4004L69.3692 21.4001L69.4351 21.2761C69.8247 20.5433 70.195 19.8493 70.5543 19.2216C70.9146 18.5922 71.2519 18.0507 71.5713 17.6205C71.8982 17.18 72.1654 16.9128 72.3704 16.7773C72.4667 16.7136 72.5255 16.6951 72.5499 16.6901C72.5659 16.6867 72.5695 16.6879 72.5751 16.6896L72.5761 16.6899C72.6045 16.6989 72.7812 16.7753 73.0595 17.2075C73.0822 17.2427 73.1055 17.2773 73.1295 17.3114ZM54.1108 13.1248C54.1108 13.1249 54.1094 13.1254 54.1066 13.1262C54.1095 13.1251 54.1108 13.1247 54.1108 13.1248ZM53.9468 13.1064L53.9431 13.1042L53.9416 13.103C53.9416 13.1029 53.942 13.1031 53.9427 13.1035C53.9436 13.1041 53.9449 13.105 53.9468 13.1064ZM21.7058 18.832C21.7058 18.8319 21.7081 18.8321 21.7123 18.833C21.7078 18.8325 21.7057 18.832 21.7058 18.832Z" fill="#00534B"/>
<path d="M20.5072 52.8411H17.1994V47.1902H12.3152V52.8411H9.00744V40.0147H12.3152V44.7094H17.1994V40.0147H20.5072V52.8411ZM65.0178 40.0147L60.3403 52.8411H56.6363L51.9589 40.0147H55.4303L58.5314 49.025L61.6325 40.0147H65.0178Z" fill="#003F39"/>
<path d="M33.1617 48.5771H26.0637C26.1097 49.3351 26.3968 49.9152 26.9251 50.3171C27.4592 50.7191 28.2431 50.9201 29.2768 50.9201C29.9314 50.9201 30.566 50.8024 31.1805 50.5669C31.7949 50.3315 32.2802 50.0788 32.6362 49.8089H32.9808V52.2984C32.2802 52.5798 31.6198 52.7836 30.9996 52.91C30.3794 53.0363 29.6931 53.0995 28.9408 53.0995C26.9998 53.0995 25.5124 52.663 24.4787 51.7901C23.445 50.9173 22.9282 49.674 22.9282 48.0603C22.9282 46.4638 23.4163 45.2004 24.3926 44.2701C25.3746 43.334 26.7184 42.866 28.424 42.866C29.9975 42.866 31.1805 43.2651 31.973 44.0633C32.7655 44.8558 33.1617 45.9986 33.1617 47.4917V48.5771ZM30.0779 46.7595C30.0606 46.1106 29.8998 45.6225 29.5955 45.2951C29.2911 44.9678 28.8173 44.8041 28.1742 44.8041C27.5769 44.8041 27.0859 44.9592 26.7012 45.2693C26.3164 45.5794 26.101 46.0761 26.0551 46.7595H30.0779ZM41.2249 50.3171V48.3014C40.8057 48.3359 40.352 48.3847 39.8639 48.4479C39.3757 48.5053 39.0053 48.5742 38.7527 48.6546C38.4425 48.7523 38.2042 48.8958 38.0377 49.0853C37.8769 49.2691 37.7965 49.5132 37.7965 49.8175C37.7965 50.0185 37.8137 50.1822 37.8482 50.3085C37.8826 50.4349 37.9688 50.5555 38.1066 50.6703C38.2387 50.7852 38.3966 50.8713 38.5804 50.9287C38.7641 50.9804 39.0513 51.0063 39.4418 51.0063C39.7519 51.0063 40.0649 50.9431 40.3807 50.8168C40.7023 50.6904 40.9837 50.5239 41.2249 50.3171ZM41.2249 51.816C41.0584 51.9423 40.8516 52.0945 40.6047 52.2725C40.3577 52.4506 40.1252 52.5913 39.9069 52.6946C39.6026 52.8325 39.2867 52.9329 38.9594 52.9961C38.6321 53.065 38.2731 53.0995 37.8826 53.0995C36.9638 53.0995 36.1943 52.8152 35.5741 52.2467C34.9538 51.6782 34.6437 50.9517 34.6437 50.0673C34.6437 49.361 34.8017 48.7838 35.1175 48.3359C35.4334 47.888 35.8813 47.5348 36.4613 47.2764C37.0356 47.018 37.7477 46.8342 38.5976 46.7251C39.4475 46.616 40.329 46.5356 41.2421 46.4839V46.4322C41.2421 45.8981 41.0239 45.5306 40.5875 45.3296C40.151 45.1229 39.5078 45.0195 38.6579 45.0195C38.1468 45.0195 37.6012 45.1114 37.0212 45.2951C36.4412 45.4732 36.0249 45.611 35.7722 45.7086H35.4879V43.3742C35.8153 43.2881 36.3465 43.1876 37.0815 43.0727C37.8223 42.9521 38.5631 42.8918 39.304 42.8918C41.067 42.8918 42.339 43.1646 43.12 43.7101C43.9067 44.25 44.3001 45.0999 44.3001 46.2599V52.8411H41.2249V51.816ZM50.2701 52.8411H47.169V39.4376H50.2701V52.8411ZM69.8076 52.8411H66.7065V43.1675H69.8076V52.8411ZM69.8938 41.7892H66.6204V39.4376H69.8938V41.7892ZM81.1614 49.7745C81.1614 50.7737 80.7135 51.5805 79.8176 52.195C78.9217 52.8037 77.6957 53.1081 76.1394 53.1081C75.278 53.1081 74.497 53.0277 73.7964 52.8669C73.0957 52.7061 72.533 52.5281 72.108 52.3328V49.7831H72.3923C72.5473 49.8922 72.7253 50.0128 72.9263 50.1449C73.1331 50.2712 73.4231 50.409 73.7964 50.5583C74.1179 50.6904 74.4826 50.8053 74.8903 50.9029C75.2981 50.9948 75.7345 51.0407 76.1997 51.0407C76.8084 51.0407 77.2592 50.9747 77.5521 50.8426C77.845 50.7048 77.9914 50.5038 77.9914 50.2396C77.9914 50.0042 77.9053 49.8348 77.733 49.7314C77.5607 49.6223 77.2334 49.5189 76.751 49.4213C76.5213 49.3696 76.2083 49.315 75.812 49.2576C75.4215 49.1944 75.0655 49.1198 74.7439 49.0336C73.8653 48.8039 73.2135 48.4479 72.7885 47.9655C72.3635 47.4774 72.1511 46.8715 72.1511 46.1479C72.1511 45.2176 72.5904 44.4452 73.469 43.8307C74.3534 43.2105 75.5594 42.9004 77.0869 42.9004C77.8105 42.9004 78.5025 42.9751 79.1629 43.1244C79.8291 43.268 80.3488 43.423 80.7221 43.5896V46.0359H80.455C79.9956 45.7201 79.4702 45.4645 78.8787 45.2693C78.2929 45.0683 77.6985 44.9678 77.0955 44.9678C76.5959 44.9678 76.1738 45.0367 75.8293 45.1745C75.4905 45.3124 75.321 45.5076 75.321 45.7603C75.321 45.99 75.3986 46.1652 75.5536 46.2858C75.7087 46.4064 76.0733 46.5269 76.6476 46.6475C76.9635 46.7107 77.3023 46.7739 77.6641 46.8371C78.0316 46.8945 78.3991 46.9691 78.7667 47.061C79.5821 47.2735 80.1851 47.6095 80.5756 48.0689C80.9661 48.5225 81.1614 49.0911 81.1614 49.7745ZM89.4313 52.7549C89.0982 52.8411 88.7451 52.9071 88.3718 52.953C87.9985 53.0047 87.542 53.0306 87.0021 53.0306C85.7962 53.0306 84.8974 52.7865 84.3059 52.2984C83.7202 51.8102 83.4273 50.9747 83.4273 49.7917V45.2693H82.1524V43.1675H83.4273V40.4023H86.5284V43.1675H89.4313V45.2693H86.5284V48.6977C86.5284 49.0365 86.5312 49.3323 86.537 49.5849C86.5427 49.8376 86.5887 50.0645 86.6748 50.2655C86.7552 50.4665 86.8959 50.6272 87.0969 50.7478C87.3036 50.8627 87.6023 50.9201 87.9928 50.9201C88.1536 50.9201 88.3632 50.8857 88.6216 50.8168C88.8858 50.7478 89.0695 50.6847 89.1729 50.6272H89.4313V52.7549ZM97.1671 50.3171V48.3014C96.7479 48.3359 96.2943 48.3847 95.8061 48.4479C95.318 48.5053 94.9476 48.5742 94.6949 48.6546C94.3848 48.7523 94.1465 48.8958 93.9799 49.0853C93.8191 49.2691 93.7387 49.5132 93.7387 49.8175C93.7387 50.0185 93.756 50.1822 93.7904 50.3085C93.8249 50.4349 93.911 50.5555 94.0489 50.6703C94.1809 50.7852 94.3389 50.8713 94.5226 50.9287C94.7064 50.9804 94.9935 51.0063 95.384 51.0063C95.6941 51.0063 96.0071 50.9431 96.323 50.8168C96.6446 50.6904 96.926 50.5239 97.1671 50.3171ZM97.1671 51.816C97.0006 51.9423 96.7939 52.0945 96.5469 52.2725C96.3 52.4506 96.0674 52.5913 95.8492 52.6946C95.5448 52.8325 95.229 52.9329 94.9016 52.9961C94.5743 53.065 94.2154 53.0995 93.8249 53.0995C92.9061 53.0995 92.1365 52.8152 91.5163 52.2467C90.8961 51.6782 90.586 50.9517 90.586 50.0673C90.586 49.361 90.7439 48.7838 91.0598 48.3359C91.3756 47.888 91.8235 47.5348 92.4036 47.2764C92.9778 47.018 93.6899 46.8342 94.5399 46.7251C95.3898 46.616 96.2713 46.5356 97.1844 46.4839V46.4322C97.1844 45.8981 96.9662 45.5306 96.5297 45.3296C96.0933 45.1229 95.4501 45.0195 94.6002 45.0195C94.0891 45.0195 93.5435 45.1114 92.9635 45.2951C92.3835 45.4732 91.9671 45.611 91.7144 45.7086H91.4302V43.3742C91.7575 43.2881 92.2887 43.1876 93.0238 43.0727C93.7646 42.9521 94.5054 42.8918 95.2462 42.8918C97.0092 42.8918 98.2812 43.1646 99.0622 43.7101C99.849 44.25 100.242 45.0999 100.242 46.2599V52.8411H97.1671V51.816Z" fill="#009688"/>
<path d="M66.3823 34.6947C64.2809 32.9156 66.4667 31.842 68.247 29.7421C70.0274 27.6423 70.7282 25.3115 72.8296 27.0905C74.931 28.8696 75.1912 32.014 73.4109 34.1138C71.6305 36.2137 68.4837 36.4737 66.3823 34.6947Z" fill="#009688"/>
</svg>
